# xmcd
#
# Track frame offsets: 
#        182
#        15647
#        29507
#        40272
#        54122
#        69815
#        84887
#        96667
#        108680
#        122305
#        134607
#        148342
#        160315
#        171840
#        182607
#        195370
#        207795
#        220482
#        234227
#        244792
#        256320
#        266662
#        279520
#        295655
#        309280
#
# Disc length: 4312 seconds
#
# Revision: 3
# Processed by: cddbd v1.5.2PL0 Copyright (c) Steve Scherf et al.
# Submitted via: ExactAudioCopy v0.99pb4
#
DISCID=6310d619
DTITLE=Garnet Mimms - The Best Of Garnet Mimms: Cry Baby
DYEAR=1993
DGENRE=blues
TTITLE0=Cry Baby
TTITLE1=Don't Change Your Heart
TTITLE2=A Quiet Place
TTITLE3=For Your Precious Love
TTITLE4=Baby Don't You Weep
TTITLE5=Until You Were Gone
TTITLE6=I Keep Wanting You
TTITLE7=The Truth Hurts
TTITLE8=Anytime You Want Me
TTITLE9=Tell Me Baby
TTITLE10=One Girl
TTITLE11=Look Away
TTITLE12=Every Time
TTITLE13=A Little Bit Of Soap
TTITLE14=I'll Make It Up To You
TTITLE15=As Long As I Have You
TTITLE16=It Was Easier To Hurt Her
TTITLE17=Welcome Home
TTITLE18=Prove It To Me
TTITLE19=Looking For You
TTITLE20=Thinkin'
TTITLE21=Keep On Smilin'
TTITLE22=I'll Take Good Care Of You
TTITLE23=It's Been Such A Long Way Home
TTITLE24=My Baby
EXTD=
EXTT0=
EXTT1=
EXTT2=
EXTT3=
EXTT4=
EXTT5=
EXTT6=
EXTT7=
EXTT8=
EXTT9=
EXTT10=
EXTT11=
EXTT12=
EXTT13=
EXTT14=
EXTT15=
EXTT16=
EXTT17=
EXTT18=
EXTT19=
EXTT20=
EXTT21=
EXTT22=
EXTT23=
EXTT24=
PLAYORDER=
